<svg xmlns="http://www.w3.org/2000/svg" xmlns:xlink="http://www.w3.org/1999/xlink" width="500" zoomAndPan="magnify" viewBox="0 0 375 374.999991" height="500" preserveAspectRatio="xMidYMid meet" version="1.0"><defs><g/><clipPath id="0fd31098bf"><path d="M 141 197 L 244 197 L 244 226.925781 L 141 226.925781 Z M 141 197 " clip-rule="nonzero"/></clipPath><clipPath id="6bd4d9885a"><path d="M 121.363281 121 L 135 121 L 135 189 L 121.363281 189 Z M 121.363281 121 " clip-rule="nonzero"/></clipPath><clipPath id="f329236fea"><path d="M 207 159 L 253.363281 159 L 253.363281 220 L 207 220 Z M 207 159 " clip-rule="nonzero"/></clipPath><clipPath id="68466406dc"><path d="M 126 94.925781 L 188 94.925781 L 188 211 L 126 211 Z M 126 94.925781 " clip-rule="nonzero"/></clipPath></defs><rect x="-37.5" width="450" fill="#ffffff" y="-37.499999" height="449.999989" fill-opacity="1"/><rect x="-37.5" width="450" fill="#ffffff" y="-37.499999" height="449.999989" fill-opacity="1"/><g fill="#333333" fill-opacity="1"><g transform="translate(66.66142, 261.792801)"><g><path d="M 10.21875 0 L 4.234375 -15.609375 L 4.140625 -15.609375 C 4.253906 -14.367188 4.3125 -12.898438 4.3125 -11.203125 L 4.3125 0 L 2.421875 0 L 2.421875 -17.609375 L 5.5 -17.609375 L 11.078125 -3.078125 L 11.171875 -3.078125 L 16.8125 -17.609375 L 19.859375 -17.609375 L 19.859375 0 L 17.8125 0 L 17.8125 -11.34375 C 17.8125 -12.644531 17.867188 -14.0625 17.984375 -15.59375 L 17.890625 -15.59375 L 11.859375 0 Z M 10.21875 0 "/></g></g></g><g fill="#333333" fill-opacity="1"><g transform="translate(90.734097, 261.792801)"><g><path d="M 17.703125 -8.828125 C 17.703125 -6.015625 16.988281 -3.800781 15.5625 -2.1875 C 14.144531 -0.570312 12.164062 0.234375 9.625 0.234375 C 7.03125 0.234375 5.023438 -0.554688 3.609375 -2.140625 C 2.203125 -3.722656 1.5 -5.960938 1.5 -8.859375 C 1.5 -11.722656 2.207031 -13.941406 3.625 -15.515625 C 5.039062 -17.097656 7.050781 -17.890625 9.65625 -17.890625 C 12.175781 -17.890625 14.144531 -17.085938 15.5625 -15.484375 C 16.988281 -13.878906 17.703125 -11.660156 17.703125 -8.828125 Z M 3.671875 -8.828125 C 3.671875 -6.441406 4.175781 -4.628906 5.1875 -3.390625 C 6.207031 -2.160156 7.6875 -1.546875 9.625 -1.546875 C 11.570312 -1.546875 13.046875 -2.160156 14.046875 -3.390625 C 15.046875 -4.617188 15.546875 -6.429688 15.546875 -8.828125 C 15.546875 -11.203125 15.046875 -13 14.046875 -14.21875 C 13.054688 -15.445312 11.59375 -16.0625 9.65625 -16.0625 C 7.695312 -16.0625 6.207031 -15.441406 5.1875 -14.203125 C 4.175781 -12.972656 3.671875 -11.179688 3.671875 -8.828125 Z M 3.671875 -8.828125 "/></g></g></g><g fill="#333333" fill-opacity="1"><g transform="translate(111.747368, 261.792801)"><g><path d="M 15.796875 0 L 13.75 0 L 13.75 -8.28125 L 4.46875 -8.28125 L 4.46875 0 L 2.421875 0 L 2.421875 -17.609375 L 4.46875 -17.609375 L 4.46875 -10.125 L 13.75 -10.125 L 13.75 -17.609375 L 15.796875 -17.609375 Z M 15.796875 0 "/></g></g></g><g fill="#333333" fill-opacity="1"><g transform="translate(131.74887, 261.792801)"><g><path d="M 13.5 0 L 11.296875 -5.609375 L 4.234375 -5.609375 L 2.078125 0 L 0 0 L 6.96875 -17.6875 L 8.6875 -17.6875 L 15.609375 0 Z M 10.65625 -7.4375 L 8.609375 -12.90625 C 8.347656 -13.59375 8.078125 -14.4375 7.796875 -15.4375 C 7.617188 -14.664062 7.363281 -13.820312 7.03125 -12.90625 L 4.96875 -7.4375 Z M 10.65625 -7.4375 "/></g></g></g><g fill="#333333" fill-opacity="1"><g transform="translate(149.160711, 261.792801)"><g><path d="M 10.21875 0 L 4.234375 -15.609375 L 4.140625 -15.609375 C 4.253906 -14.367188 4.3125 -12.898438 4.3125 -11.203125 L 4.3125 0 L 2.421875 0 L 2.421875 -17.609375 L 5.5 -17.609375 L 11.078125 -3.078125 L 11.171875 -3.078125 L 16.8125 -17.609375 L 19.859375 -17.609375 L 19.859375 0 L 17.8125 0 L 17.8125 -11.34375 C 17.8125 -12.644531 17.867188 -14.0625 17.984375 -15.59375 L 17.890625 -15.59375 L 11.859375 0 Z M 10.21875 0 "/></g></g></g><g fill="#333333" fill-opacity="1"><g transform="translate(173.233385, 261.792801)"><g><path d="M 12.234375 0 L 2.421875 0 L 2.421875 -17.609375 L 12.234375 -17.609375 L 12.234375 -15.796875 L 4.46875 -15.796875 L 4.46875 -10.125 L 11.765625 -10.125 L 11.765625 -8.3125 L 4.46875 -8.3125 L 4.46875 -1.828125 L 12.234375 -1.828125 Z M 12.234375 0 "/></g></g></g><g fill="#333333" fill-opacity="1"><g transform="translate(188.754182, 261.792801)"><g><path d="M 16.484375 -8.96875 C 16.484375 -6.0625 15.691406 -3.835938 14.109375 -2.296875 C 12.535156 -0.765625 10.265625 0 7.296875 0 L 2.421875 0 L 2.421875 -17.609375 L 7.8125 -17.609375 C 10.550781 -17.609375 12.679688 -16.847656 14.203125 -15.328125 C 15.722656 -13.816406 16.484375 -11.695312 16.484375 -8.96875 Z M 14.3125 -8.90625 C 14.3125 -11.195312 13.734375 -12.925781 12.578125 -14.09375 C 11.429688 -15.257812 9.71875 -15.84375 7.4375 -15.84375 L 4.46875 -15.84375 L 4.46875 -1.765625 L 6.96875 -1.765625 C 9.40625 -1.765625 11.238281 -2.363281 12.46875 -3.5625 C 13.695312 -4.769531 14.3125 -6.550781 14.3125 -8.90625 Z M 14.3125 -8.90625 "/></g></g></g><g fill="#333333" fill-opacity="1"><g transform="translate(208.538875, 261.792801)"><g/></g></g><g fill="#333333" fill-opacity="1"><g transform="translate(216.748409, 261.792801)"><g><path d="M 13.09375 0 L 0.984375 0 L 0.984375 -1.609375 L 10.34375 -15.765625 L 1.28125 -15.765625 L 1.28125 -17.609375 L 12.828125 -17.609375 L 12.828125 -16.015625 L 3.484375 -1.859375 L 13.09375 -1.859375 Z M 13.09375 0 "/></g></g></g><g fill="#333333" fill-opacity="1"><g transform="translate(232.630552, 261.792801)"><g><path d="M 13.5 0 L 11.296875 -5.609375 L 4.234375 -5.609375 L 2.078125 0 L 0 0 L 6.96875 -17.6875 L 8.6875 -17.6875 L 15.609375 0 Z M 10.65625 -7.4375 L 8.609375 -12.90625 C 8.347656 -13.59375 8.078125 -14.4375 7.796875 -15.4375 C 7.617188 -14.664062 7.363281 -13.820312 7.03125 -12.90625 L 4.96875 -7.4375 Z M 10.65625 -7.4375 "/></g></g></g><g fill="#333333" fill-opacity="1"><g transform="translate(250.042394, 261.792801)"><g><path d="M 15.140625 0 L 12.734375 0 L 6.3125 -8.546875 L 4.46875 -6.90625 L 4.46875 0 L 2.421875 0 L 2.421875 -17.609375 L 4.46875 -17.609375 L 4.46875 -8.875 L 12.453125 -17.609375 L 14.875 -17.609375 L 7.796875 -9.96875 Z M 15.140625 0 "/></g></g></g><g fill="#333333" fill-opacity="1"><g transform="translate(266.984489, 261.792801)"><g><path d="M 4.46875 -7.328125 L 4.46875 0 L 2.421875 0 L 2.421875 -17.609375 L 7.25 -17.609375 C 9.414062 -17.609375 11.015625 -17.191406 12.046875 -16.359375 C 13.078125 -15.535156 13.59375 -14.296875 13.59375 -12.640625 C 13.59375 -10.304688 12.410156 -8.734375 10.046875 -7.921875 L 14.828125 0 L 12.40625 0 L 8.140625 -7.328125 Z M 4.46875 -9.078125 L 7.28125 -9.078125 C 8.71875 -9.078125 9.773438 -9.363281 10.453125 -9.9375 C 11.128906 -10.519531 11.46875 -11.382812 11.46875 -12.53125 C 11.46875 -13.695312 11.125 -14.535156 10.4375 -15.046875 C 9.75 -15.554688 8.644531 -15.8125 7.125 -15.8125 L 4.46875 -15.8125 Z M 4.46875 -9.078125 "/></g></g></g><g fill="#333333" fill-opacity="1"><g transform="translate(284.034971, 261.792801)"><g><path d="M 2.421875 0 L 2.421875 -17.609375 L 4.46875 -17.609375 L 4.46875 0 Z M 2.421875 0 "/></g></g></g><g fill="#333333" fill-opacity="1"><g transform="translate(292.714262, 261.792801)"><g><path d="M 13.5 0 L 11.296875 -5.609375 L 4.234375 -5.609375 L 2.078125 0 L 0 0 L 6.96875 -17.6875 L 8.6875 -17.6875 L 15.609375 0 Z M 10.65625 -7.4375 L 8.609375 -12.90625 C 8.347656 -13.59375 8.078125 -14.4375 7.796875 -15.4375 C 7.617188 -14.664062 7.363281 -13.820312 7.03125 -12.90625 L 4.96875 -7.4375 Z M 10.65625 -7.4375 "/></g></g></g><g fill="#333333" fill-opacity="1"><g transform="translate(127.908189, 277.427063)"><g><path d="M 2 0 L 1.078125 0 L 1.078125 -7.859375 L 5.46875 -7.859375 L 5.46875 -7.046875 L 2 -7.046875 L 2 -4.171875 L 5.25 -4.171875 L 5.25 -3.359375 L 2 -3.359375 Z M 2 0 "/></g></g></g><g fill="#333333" fill-opacity="1"><g transform="translate(142.34181, 277.427063)"><g><path d="M 2 -3.265625 L 2 0 L 1.078125 0 L 1.078125 -7.859375 L 3.234375 -7.859375 C 4.203125 -7.859375 4.914062 -7.671875 5.375 -7.296875 C 5.832031 -6.929688 6.0625 -6.378906 6.0625 -5.640625 C 6.0625 -4.597656 5.535156 -3.894531 4.484375 -3.53125 L 6.625 0 L 5.546875 0 L 3.640625 -3.265625 Z M 2 -4.0625 L 3.25 -4.0625 C 3.894531 -4.0625 4.367188 -4.1875 4.671875 -4.4375 C 4.972656 -4.695312 5.125 -5.082031 5.125 -5.59375 C 5.125 -6.113281 4.96875 -6.488281 4.65625 -6.71875 C 4.351562 -6.945312 3.863281 -7.0625 3.1875 -7.0625 L 2 -7.0625 Z M 2 -4.0625 "/></g></g></g><g fill="#333333" fill-opacity="1"><g transform="translate(157.899583, 277.427063)"><g><path d="M 7.90625 -3.9375 C 7.90625 -2.675781 7.585938 -1.6875 6.953125 -0.96875 C 6.316406 -0.25 5.429688 0.109375 4.296875 0.109375 C 3.140625 0.109375 2.242188 -0.242188 1.609375 -0.953125 C 0.984375 -1.660156 0.671875 -2.660156 0.671875 -3.953125 C 0.671875 -5.234375 0.984375 -6.222656 1.609375 -6.921875 C 2.242188 -7.628906 3.144531 -7.984375 4.3125 -7.984375 C 5.4375 -7.984375 6.316406 -7.625 6.953125 -6.90625 C 7.585938 -6.1875 7.90625 -5.195312 7.90625 -3.9375 Z M 1.640625 -3.9375 C 1.640625 -2.875 1.863281 -2.066406 2.3125 -1.515625 C 2.769531 -0.960938 3.429688 -0.6875 4.296875 -0.6875 C 5.171875 -0.6875 5.828125 -0.960938 6.265625 -1.515625 C 6.710938 -2.066406 6.9375 -2.875 6.9375 -3.9375 C 6.9375 -5 6.710938 -5.800781 6.265625 -6.34375 C 5.828125 -6.894531 5.175781 -7.171875 4.3125 -7.171875 C 3.4375 -7.171875 2.769531 -6.894531 2.3125 -6.34375 C 1.863281 -5.789062 1.640625 -4.988281 1.640625 -3.9375 Z M 1.640625 -3.9375 "/></g></g></g><g fill="#333333" fill-opacity="1"><g transform="translate(175.226958, 277.427063)"><g><path d="M 7.21875 0 L 6.1875 0 L 1.875 -6.59375 L 1.84375 -6.59375 C 1.894531 -5.820312 1.921875 -5.113281 1.921875 -4.46875 L 1.921875 0 L 1.078125 0 L 1.078125 -7.859375 L 2.109375 -7.859375 L 6.40625 -1.296875 L 6.4375 -1.296875 C 6.4375 -1.390625 6.421875 -1.695312 6.390625 -2.21875 C 6.367188 -2.75 6.363281 -3.125 6.375 -3.34375 L 6.375 -7.859375 L 7.21875 -7.859375 Z M 7.21875 0 "/></g></g></g><g fill="#333333" fill-opacity="1"><g transform="translate(192.280015, 277.427063)"><g><path d="M 3.5 0 L 2.59375 0 L 2.59375 -7.046875 L 0.09375 -7.046875 L 0.09375 -7.859375 L 5.984375 -7.859375 L 5.984375 -7.046875 L 3.5 -7.046875 Z M 3.5 0 "/></g></g></g><g fill="#333333" fill-opacity="1"><g transform="translate(207.122418, 277.427063)"><g><path d="M 5.46875 0 L 1.078125 0 L 1.078125 -7.859375 L 5.46875 -7.859375 L 5.46875 -7.046875 L 2 -7.046875 L 2 -4.515625 L 5.25 -4.515625 L 5.25 -3.71875 L 2 -3.71875 L 2 -0.8125 L 5.46875 -0.8125 Z M 5.46875 0 "/></g></g></g><g fill="#333333" fill-opacity="1"><g transform="translate(221.997093, 277.427063)"><g><path d="M 7.21875 0 L 6.1875 0 L 1.875 -6.59375 L 1.84375 -6.59375 C 1.894531 -5.820312 1.921875 -5.113281 1.921875 -4.46875 L 1.921875 0 L 1.078125 0 L 1.078125 -7.859375 L 2.109375 -7.859375 L 6.40625 -1.296875 L 6.4375 -1.296875 C 6.4375 -1.390625 6.421875 -1.695312 6.390625 -2.21875 C 6.367188 -2.75 6.363281 -3.125 6.375 -3.34375 L 6.375 -7.859375 L 7.21875 -7.859375 Z M 7.21875 0 "/></g></g></g><g fill="#333333" fill-opacity="1"><g transform="translate(239.050156, 277.427063)"><g><path d="M 7.359375 -4 C 7.359375 -2.707031 7.003906 -1.71875 6.296875 -1.03125 C 5.597656 -0.34375 4.585938 0 3.265625 0 L 1.078125 0 L 1.078125 -7.859375 L 3.484375 -7.859375 C 4.710938 -7.859375 5.664062 -7.519531 6.34375 -6.84375 C 7.019531 -6.164062 7.359375 -5.21875 7.359375 -4 Z M 6.390625 -3.96875 C 6.390625 -5 6.128906 -5.773438 5.609375 -6.296875 C 5.097656 -6.816406 4.335938 -7.078125 3.328125 -7.078125 L 2 -7.078125 L 2 -0.796875 L 3.109375 -0.796875 C 4.203125 -0.796875 5.019531 -1.0625 5.5625 -1.59375 C 6.113281 -2.132812 6.390625 -2.925781 6.390625 -3.96875 Z M 6.390625 -3.96875 "/></g></g></g><g fill="#333333" fill-opacity="1"><g transform="translate(129.58397, 292.427062)"><g><path d="M 7.359375 -4 C 7.359375 -2.707031 7.003906 -1.71875 6.296875 -1.03125 C 5.597656 -0.34375 4.585938 0 3.265625 0 L 1.078125 0 L 1.078125 -7.859375 L 3.484375 -7.859375 C 4.710938 -7.859375 5.664062 -7.519531 6.34375 -6.84375 C 7.019531 -6.164062 7.359375 -5.21875 7.359375 -4 Z M 6.390625 -3.96875 C 6.390625 -5 6.128906 -5.773438 5.609375 -6.296875 C 5.097656 -6.816406 4.335938 -7.078125 3.328125 -7.078125 L 2 -7.078125 L 2 -0.796875 L 3.109375 -0.796875 C 4.203125 -0.796875 5.019531 -1.0625 5.5625 -1.59375 C 6.113281 -2.132812 6.390625 -2.925781 6.390625 -3.96875 Z M 6.390625 -3.96875 "/></g></g></g><g fill="#333333" fill-opacity="1"><g transform="translate(146.362714, 292.427062)"><g><path d="M 5.578125 -7.859375 L 6.5625 -7.859375 L 3.71875 0 L 2.8125 0 L 0 -7.859375 L 0.96875 -7.859375 L 2.78125 -2.78125 C 2.988281 -2.195312 3.148438 -1.628906 3.265625 -1.078125 C 3.398438 -1.648438 3.570312 -2.226562 3.78125 -2.8125 Z M 5.578125 -7.859375 "/></g></g></g><g fill="#333333" fill-opacity="1"><g transform="translate(161.667687, 292.427062)"><g><path d="M 5.46875 0 L 1.078125 0 L 1.078125 -7.859375 L 5.46875 -7.859375 L 5.46875 -7.046875 L 2 -7.046875 L 2 -4.515625 L 5.25 -4.515625 L 5.25 -3.71875 L 2 -3.71875 L 2 -0.8125 L 5.46875 -0.8125 Z M 5.46875 0 "/></g></g></g><g fill="#333333" fill-opacity="1"><g transform="translate(176.542365, 292.427062)"><g><path d="M 1.078125 0 L 1.078125 -7.859375 L 2 -7.859375 L 2 -0.828125 L 5.46875 -0.828125 L 5.46875 0 Z M 1.078125 0 "/></g></g></g><g fill="#333333" fill-opacity="1"><g transform="translate(191.008257, 292.427062)"><g><path d="M 7.90625 -3.9375 C 7.90625 -2.675781 7.585938 -1.6875 6.953125 -0.96875 C 6.316406 -0.25 5.429688 0.109375 4.296875 0.109375 C 3.140625 0.109375 2.242188 -0.242188 1.609375 -0.953125 C 0.984375 -1.660156 0.671875 -2.660156 0.671875 -3.953125 C 0.671875 -5.234375 0.984375 -6.222656 1.609375 -6.921875 C 2.242188 -7.628906 3.144531 -7.984375 4.3125 -7.984375 C 5.4375 -7.984375 6.316406 -7.625 6.953125 -6.90625 C 7.585938 -6.1875 7.90625 -5.195312 7.90625 -3.9375 Z M 1.640625 -3.9375 C 1.640625 -2.875 1.863281 -2.066406 2.3125 -1.515625 C 2.769531 -0.960938 3.429688 -0.6875 4.296875 -0.6875 C 5.171875 -0.6875 5.828125 -0.960938 6.265625 -1.515625 C 6.710938 -2.066406 6.9375 -2.875 6.9375 -3.9375 C 6.9375 -5 6.710938 -5.800781 6.265625 -6.34375 C 5.828125 -6.894531 5.175781 -7.171875 4.3125 -7.171875 C 3.4375 -7.171875 2.769531 -6.894531 2.3125 -6.34375 C 1.863281 -5.789062 1.640625 -4.988281 1.640625 -3.9375 Z M 1.640625 -3.9375 "/></g></g></g><g fill="#333333" fill-opacity="1"><g transform="translate(208.33563, 292.427062)"><g><path d="M 6.0625 -5.578125 C 6.0625 -4.773438 5.789062 -4.160156 5.25 -3.734375 C 4.707031 -3.304688 3.929688 -3.09375 2.921875 -3.09375 L 2 -3.09375 L 2 0 L 1.078125 0 L 1.078125 -7.859375 L 3.125 -7.859375 C 5.082031 -7.859375 6.0625 -7.097656 6.0625 -5.578125 Z M 2 -3.875 L 2.8125 -3.875 C 3.625 -3.875 4.210938 -4.003906 4.578125 -4.265625 C 4.941406 -4.523438 5.125 -4.945312 5.125 -5.53125 C 5.125 -6.050781 4.953125 -6.4375 4.609375 -6.6875 C 4.265625 -6.945312 3.734375 -7.078125 3.015625 -7.078125 L 2 -7.078125 Z M 2 -3.875 "/></g></g></g><g fill="#333333" fill-opacity="1"><g transform="translate(223.715904, 292.427062)"><g><path d="M 5.46875 0 L 1.078125 0 L 1.078125 -7.859375 L 5.46875 -7.859375 L 5.46875 -7.046875 L 2 -7.046875 L 2 -4.515625 L 5.25 -4.515625 L 5.25 -3.71875 L 2 -3.71875 L 2 -0.8125 L 5.46875 -0.8125 Z M 5.46875 0 "/></g></g></g><g fill="#333333" fill-opacity="1"><g transform="translate(238.590585, 292.427062)"><g><path d="M 2 -3.265625 L 2 0 L 1.078125 0 L 1.078125 -7.859375 L 3.234375 -7.859375 C 4.203125 -7.859375 4.914062 -7.671875 5.375 -7.296875 C 5.832031 -6.929688 6.0625 -6.378906 6.0625 -5.640625 C 6.0625 -4.597656 5.535156 -3.894531 4.484375 -3.53125 L 6.625 0 L 5.546875 0 L 3.640625 -3.265625 Z M 2 -4.0625 L 3.25 -4.0625 C 3.894531 -4.0625 4.367188 -4.1875 4.671875 -4.4375 C 4.972656 -4.695312 5.125 -5.082031 5.125 -5.59375 C 5.125 -6.113281 4.96875 -6.488281 4.65625 -6.71875 C 4.351562 -6.945312 3.863281 -7.0625 3.1875 -7.0625 L 2 -7.0625 Z M 2 -4.0625 "/></g></g></g><g clip-path="url(#0fd31098bf)"><path fill="#54afe6" d="M 239.53125 199.46875 C 239.539062 199.460938 239.554688 199.445312 239.570312 199.421875 C 239.554688 199.441406 239.539062 199.460938 239.53125 199.46875 Z M 240.078125 201.984375 C 239.222656 201.328125 239.054688 200.097656 239.710938 199.238281 C 239.675781 199.28125 239.644531 199.320312 239.617188 199.359375 C 239.644531 199.324219 239.671875 199.289062 239.710938 199.238281 C 239.824219 199.089844 239.875 199.019531 239.890625 199 C 239.871094 199.027344 239.789062 199.132812 239.710938 199.238281 C 240.363281 198.378906 241.589844 198.214844 242.445312 198.867188 C 243.300781 199.523438 243.464844 200.753906 242.8125 201.613281 C 242.160156 202.472656 240.933594 202.640625 240.078125 201.984375 Z M 142.328125 206.699219 C 141.476562 207.609375 141.523438 209.039062 142.429688 209.890625 C 143.082031 210.511719 144.011719 210.65625 144.796875 210.347656 C 157.089844 221.050781 172.699219 226.921875 189 226.921875 C 199.527344 226.921875 209.621094 224.546875 219 219.859375 C 227.199219 215.765625 234.605469 209.921875 240.554688 202.882812 C 241.535156 203.167969 242.632812 202.839844 243.289062 201.976562 C 244.144531 200.855469 243.925781 199.246094 242.808594 198.390625 C 241.6875 197.535156 240.085938 197.75 239.234375 198.875 C 238.613281 199.691406 238.558594 200.765625 239.007812 201.617188 C 226.492188 216.457031 208.402344 224.917969 189 224.917969 C 173.195312 224.917969 158.058594 219.230469 146.136719 208.859375 C 146.355469 208.074219 146.144531 207.195312 145.511719 206.597656 C 144.605469 205.746094 143.179688 205.789062 142.328125 206.699219 " fill-opacity="1" fill-rule="nonzero"/></g><g clip-path="url(#6bd4d9885a)"><path fill="#54afe6" d="M 129.878906 185.195312 C 129.875 185.1875 129.867188 185.167969 129.855469 185.144531 C 129.871094 185.171875 129.875 185.1875 129.878906 185.195312 Z M 129.679688 184.75 C 129.625 184.625 129.601562 184.570312 129.679688 184.75 Z M 127.175781 183.933594 C 128.15625 183.492188 129.316406 183.933594 129.757812 184.917969 C 130.195312 185.902344 129.757812 187.066406 128.773438 187.507812 C 127.792969 187.949219 126.636719 187.507812 126.195312 186.523438 C 125.753906 185.535156 126.195312 184.375 127.175781 183.933594 Z M 134.601562 124.746094 C 135.28125 123.703125 134.992188 122.300781 133.953125 121.617188 C 132.910156 120.933594 131.515625 121.226562 130.835938 122.269531 C 130.335938 123.03125 130.359375 123.984375 130.8125 124.710938 C 124.683594 135.117188 121.449219 146.96875 121.449219 159.121094 C 121.449219 167.703125 123.03125 176.042969 126.140625 183.941406 C 125.441406 184.675781 125.210938 185.789062 125.648438 186.769531 C 126.226562 188.058594 127.738281 188.632812 129.019531 188.054688 C 130.304688 187.476562 130.878906 185.957031 130.300781 184.671875 C 129.878906 183.726562 128.953125 183.164062 127.980469 183.164062 C 124.972656 175.511719 123.445312 167.433594 123.445312 159.121094 C 123.445312 147.339844 126.574219 135.851562 132.515625 125.757812 C 133.316406 125.828125 134.128906 125.46875 134.601562 124.746094 " fill-opacity="1" fill-rule="nonzero"/></g><path fill="#54afe6" d="M 216.871094 106.011719 C 216.894531 106.023438 216.898438 106.027344 216.871094 106.011719 Z M 216.859375 106.007812 C 216.847656 106 216.824219 105.992188 216.796875 105.976562 C 216.824219 105.988281 216.84375 106 216.859375 106.007812 Z M 218.355469 102.378906 C 219.320312 102.859375 219.710938 104.039062 219.230469 105.003906 C 218.75 105.972656 217.574219 106.367188 216.613281 105.882812 C 215.648438 105.402344 215.257812 104.222656 215.738281 103.253906 C 216.21875 102.289062 217.394531 101.894531 218.355469 102.378906 Z M 239.417969 119.578125 C 238.867188 118.847656 237.960938 118.550781 237.128906 118.742188 C 232.332031 112.996094 226.484375 108.09375 220.019531 104.378906 C 220.117188 103.355469 219.59375 102.328125 218.625 101.839844 C 217.363281 101.210938 215.828125 101.726562 215.203125 102.988281 C 214.574219 104.25 215.085938 105.789062 216.34375 106.421875 C 217.257812 106.878906 218.308594 106.730469 219.0625 106.136719 C 225.300781 109.726562 230.945312 114.460938 235.578125 120 C 235.242188 120.734375 235.3125 121.621094 235.828125 122.308594 C 236.578125 123.300781 237.992188 123.496094 238.984375 122.746094 C 239.976562 121.992188 240.167969 120.570312 239.417969 119.578125 " fill-opacity="1" fill-rule="nonzero"/><g clip-path="url(#f329236fea)"><path fill="#54afe6" d="M 248.753906 161.871094 C 248.753906 161.898438 248.753906 161.917969 248.753906 161.933594 C 248.753906 161.917969 248.753906 161.898438 248.753906 161.871094 Z M 248.761719 161.332031 C 248.761719 161.328125 248.761719 161.328125 248.761719 161.332031 Z M 250.75 159.722656 C 251.824219 159.742188 252.683594 160.640625 252.660156 161.71875 C 252.636719 162.800781 251.746094 163.660156 250.667969 163.636719 C 249.59375 163.617188 248.734375 162.71875 248.757812 161.640625 C 248.757812 161.722656 248.753906 161.804688 248.753906 161.863281 C 248.753906 161.8125 248.753906 161.742188 248.757812 161.640625 C 248.761719 161.480469 248.761719 161.394531 248.761719 161.351562 C 248.761719 161.402344 248.761719 161.519531 248.757812 161.640625 C 248.78125 160.558594 249.671875 159.699219 250.75 159.722656 Z M 253.257812 161.734375 C 253.289062 160.320312 252.167969 159.148438 250.761719 159.121094 C 249.355469 159.089844 248.1875 160.214844 248.160156 161.628906 C 248.136719 162.648438 248.71875 163.539062 249.574219 163.96875 C 247.761719 187.109375 233.152344 207.050781 211.628906 215.726562 C 211.039062 215.179688 210.175781 214.96875 209.363281 215.246094 C 208.1875 215.65625 207.566406 216.941406 207.972656 218.121094 C 208.375 219.300781 209.660156 219.925781 210.835938 219.519531 C 211.695312 219.222656 212.253906 218.453125 212.339844 217.597656 C 223.109375 213.257812 232.441406 206.03125 239.417969 196.59375 C 246.472656 187.054688 250.648438 175.863281 251.566406 164.085938 C 252.53125 163.742188 253.238281 162.824219 253.257812 161.734375 C 253.257812 161.734375 253.257812 161.738281 253.257812 161.738281 C 253.257812 161.738281 253.257812 161.734375 253.257812 161.734375 C 253.261719 161.691406 253.261719 161.65625 253.261719 161.621094 C 253.261719 161.65625 253.261719 161.695312 253.257812 161.734375 " fill-opacity="1" fill-rule="nonzero"/></g><g clip-path="url(#68466406dc)"><path fill="#54afe6" d="M 152.371094 206.546875 C 152.363281 206.539062 152.363281 206.539062 152.371094 206.546875 Z M 149.882812 207.136719 C 150.523438 206.269531 151.746094 206.085938 152.613281 206.726562 C 152.515625 206.65625 152.417969 206.582031 152.378906 206.554688 C 152.410156 206.574219 152.480469 206.628906 152.613281 206.726562 C 152.769531 206.84375 152.839844 206.894531 152.859375 206.910156 C 152.832031 206.890625 152.722656 206.808594 152.613281 206.730469 C 153.480469 207.371094 153.660156 208.597656 153.023438 209.46875 C 152.382812 210.335938 151.15625 210.519531 150.292969 209.878906 C 149.425781 209.234375 149.242188 208.003906 149.882812 207.136719 Z M 183.402344 96.378906 C 168.210938 97.730469 154.113281 104.5625 143.511719 115.757812 C 132.375 127.527344 126.238281 142.925781 126.238281 159.121094 C 126.238281 169.089844 128.503906 178.628906 132.964844 187.476562 C 136.847656 195.171875 142.359375 202.09375 148.996094 207.621094 C 148.726562 208.613281 149.066406 209.714844 149.9375 210.359375 C 151.066406 211.199219 152.667969 210.960938 153.503906 209.824219 C 154.339844 208.691406 154.101562 207.082031 152.96875 206.246094 C 152.148438 205.632812 151.082031 205.597656 150.238281 206.054688 C 136.222656 194.402344 128.234375 177.433594 128.234375 159.121094 C 128.234375 127.449219 152.359375 101.167969 183.535156 98.378906 C 183.941406 99.082031 184.714844 99.539062 185.582031 99.5 C 186.824219 99.445312 187.785156 98.386719 187.730469 97.140625 C 187.671875 95.894531 186.621094 94.929688 185.378906 94.984375 C 184.476562 95.027344 183.726562 95.59375 183.402344 96.378906 " fill-opacity="1" fill-rule="nonzero"/></g><path fill="#54afe6" d="M 240.964844 177.277344 C 240.957031 177.296875 240.953125 177.316406 240.945312 177.332031 C 240.949219 177.316406 240.957031 177.296875 240.964844 177.277344 Z M 240.941406 177.34375 C 240.933594 177.367188 240.929688 177.386719 240.925781 177.402344 C 240.929688 177.386719 240.933594 177.367188 240.941406 177.34375 Z M 240.910156 177.449219 C 240.90625 177.453125 240.90625 177.453125 240.910156 177.449219 Z M 241.058594 176.980469 C 241.058594 176.976562 241.0625 176.972656 241.0625 176.96875 C 241.0625 176.972656 241.058594 176.976562 241.058594 176.980469 Z M 241.082031 176.910156 C 241.089844 176.886719 241.09375 176.871094 241.097656 176.863281 C 241.09375 176.871094 241.089844 176.886719 241.082031 176.910156 Z M 243.457031 175.890625 C 244.484375 176.222656 245.046875 177.332031 244.71875 178.359375 C 244.386719 179.386719 243.285156 179.953125 242.261719 179.621094 C 241.238281 179.289062 240.671875 178.183594 241.003906 177.15625 C 241.019531 177.109375 241.03125 177.070312 241.042969 177.035156 C 241.027344 177.074219 241.015625 177.113281 241.003906 177.15625 C 241.332031 176.125 242.433594 175.5625 243.457031 175.890625 Z M 245.339844 178.382812 C 245.324219 178.433594 245.304688 178.488281 245.289062 178.542969 C 245.71875 177.199219 244.980469 175.753906 243.644531 175.320312 C 242.304688 174.886719 240.863281 175.628906 240.433594 176.96875 C 240.121094 177.941406 240.421875 178.964844 241.113281 179.621094 C 232.730469 201.0625 212.089844 215.304688 189 215.304688 C 170.023438 215.304688 152.167969 205.445312 141.898438 189.441406 C 142.324219 188.757812 142.371094 187.871094 141.945312 187.121094 C 141.328125 186.039062 139.953125 185.660156 138.875 186.28125 C 137.792969 186.898438 137.417969 188.28125 138.035156 189.363281 C 138.484375 190.15625 139.34375 190.570312 140.195312 190.492188 C 145.160156 198.242188 151.921875 204.753906 159.859375 209.40625 C 168.675781 214.574219 178.753906 217.304688 189 217.304688 C 212.929688 217.304688 234.316406 202.539062 242.988281 180.308594 C 244.015625 180.257812 244.953125 179.582031 245.289062 178.542969 C 245.242188 178.683594 245.199219 178.820312 245.175781 178.886719 C 245.191406 178.835938 245.226562 178.730469 245.289062 178.542969 C 245.308594 178.480469 245.324219 178.429688 245.339844 178.382812 " fill-opacity="1" fill-rule="nonzero"/><path fill="#54afe6" d="M 132.046875 159.921875 C 130.972656 159.917969 130.101562 159.035156 130.105469 157.953125 C 130.109375 156.875 130.988281 156 132.066406 156.003906 C 133.144531 156.007812 134.015625 156.894531 134.007812 157.972656 C 134.011719 157.703125 134.011719 157.433594 134.007812 157.972656 C 134.007812 158.136719 134.007812 158.226562 134.007812 158.261719 C 134.007812 158.214844 134.007812 158.09375 134.007812 157.972656 C 134.003906 159.054688 133.125 159.929688 132.046875 159.921875 Z M 189 101.9375 C 188.96875 100.6875 187.933594 99.703125 186.691406 99.734375 C 185.785156 99.757812 185.023438 100.316406 184.683594 101.097656 C 170.667969 102.136719 157.589844 108.222656 147.65625 118.375 C 137.789062 128.457031 131.980469 141.585938 131.140625 155.578125 C 130.191406 155.945312 129.511719 156.871094 129.507812 157.953125 C 129.5 159.363281 130.640625 160.515625 132.042969 160.523438 C 133.453125 160.53125 134.601562 159.386719 134.609375 157.976562 C 134.613281 156.945312 134.007812 156.058594 133.132812 155.648438 C 134.835938 127.679688 156.921875 105.183594 184.785156 103.097656 C 185.183594 103.804688 185.941406 104.273438 186.804688 104.253906 C 188.050781 104.21875 189.03125 103.183594 189 101.9375 " fill-opacity="1" fill-rule="nonzero"/><path fill="#54afe6" d="M 149.246094 128.347656 C 149.253906 128.335938 149.253906 128.335938 149.246094 128.347656 Z M 149.230469 128.371094 C 149.203125 128.402344 149.160156 128.464844 149.085938 128.570312 C 149.144531 128.488281 149.199219 128.410156 149.230469 128.371094 Z M 149.050781 128.613281 C 149.003906 128.679688 148.964844 128.730469 148.941406 128.765625 C 148.972656 128.722656 149.011719 128.667969 149.050781 128.613281 Z M 148.929688 128.78125 C 148.917969 128.796875 148.910156 128.808594 148.902344 128.816406 C 148.910156 128.808594 148.917969 128.792969 148.929688 128.78125 Z M 148.890625 128.832031 C 148.882812 128.84375 148.882812 128.84375 148.890625 128.832031 Z M 148.648438 125.851562 C 149.515625 126.492188 149.703125 127.71875 149.066406 128.589844 C 148.429688 129.460938 147.207031 129.652344 146.339844 129.011719 C 145.472656 128.375 145.28125 127.148438 145.917969 126.277344 C 146.554688 125.402344 147.777344 125.214844 148.648438 125.851562 Z M 225.296875 120.144531 C 215.402344 110.84375 202.597656 105.742188 189 105.742188 C 180.546875 105.742188 172.460938 107.683594 164.964844 111.511719 C 158.558594 114.78125 152.796875 119.410156 148.167969 124.96875 C 147.175781 124.695312 146.078125 125.039062 145.4375 125.921875 C 144.605469 127.058594 144.851562 128.664062 145.984375 129.496094 C 147.121094 130.332031 148.71875 130.085938 149.550781 128.945312 C 150.152344 128.121094 150.1875 127.054688 149.730469 126.210938 C 159.503906 114.445312 173.679688 107.746094 189 107.746094 C 202.070312 107.746094 214.382812 112.640625 223.898438 121.578125 C 223.652344 122.34375 223.820312 123.214844 224.414062 123.839844 C 225.273438 124.738281 226.699219 124.769531 227.597656 123.910156 C 228.496094 123.046875 228.527344 121.617188 227.667969 120.710938 C 227.035156 120.054688 226.101562 119.863281 225.296875 120.144531 " fill-opacity="1" fill-rule="nonzero"/><path fill="#54afe6" d="M 188.363281 204.726562 C 188.371094 204.726562 188.378906 204.726562 188.394531 204.726562 C 188.382812 204.726562 188.371094 204.726562 188.363281 204.726562 Z M 188.417969 204.726562 C 188.449219 204.726562 188.496094 204.726562 188.558594 204.722656 C 188.503906 204.726562 188.453125 204.726562 188.417969 204.726562 Z M 188.90625 204.71875 C 188.921875 204.71875 188.929688 204.71875 188.941406 204.71875 C 188.929688 204.71875 188.921875 204.71875 188.90625 204.71875 Z M 188.96875 204.71875 C 188.980469 204.714844 188.980469 204.714844 188.96875 204.71875 Z M 186.75 206.714844 C 186.730469 205.632812 187.589844 204.742188 188.664062 204.722656 C 188.664062 204.722656 188.664062 204.722656 188.660156 204.722656 C 188.664062 204.722656 188.664062 204.722656 188.664062 204.722656 C 188.714844 204.722656 188.75 204.71875 188.785156 204.71875 C 188.75 204.71875 188.707031 204.722656 188.664062 204.722656 C 189.742188 204.703125 190.632812 205.566406 190.652344 206.644531 C 190.671875 207.726562 189.8125 208.621094 188.734375 208.640625 C 187.660156 208.660156 186.769531 207.796875 186.75 206.714844 Z M 188.746094 209.242188 C 190.152344 209.214844 191.277344 208.046875 191.25 206.636719 C 191.226562 205.222656 190.0625 204.09375 188.65625 204.121094 C 187.644531 204.140625 186.785156 204.746094 186.386719 205.613281 C 162.03125 204.246094 142.605469 183.882812 142.605469 159.121094 C 142.605469 142.003906 151.75 126.574219 166.605469 118.347656 C 167.25 118.820312 168.125 118.929688 168.894531 118.566406 C 170.019531 118.03125 170.5 116.683594 169.96875 115.554688 C 169.4375 114.429688 168.09375 113.945312 166.972656 114.480469 C 166.144531 114.871094 165.664062 115.707031 165.683594 116.570312 C 158.546875 120.527344 152.5 126.226562 148.109375 133.171875 C 143.203125 140.929688 140.609375 149.90625 140.609375 159.121094 C 140.609375 184.964844 160.898438 206.21875 186.332031 207.617188 C 186.710938 208.582031 187.652344 209.261719 188.746094 209.242188 " fill-opacity="1" fill-rule="nonzero"/><path fill="#54afe6" d="M 151.824219 175.648438 C 151.828125 175.652344 151.828125 175.65625 151.832031 175.660156 C 151.828125 175.65625 151.828125 175.652344 151.824219 175.648438 Z M 151.984375 175.976562 C 151.996094 175.996094 152.003906 176.015625 152.011719 176.03125 C 152.003906 176.011719 151.996094 175.996094 151.984375 175.976562 Z M 152.0625 176.136719 C 152.078125 176.167969 152.085938 176.183594 152.089844 176.191406 C 152.085938 176.179688 152.078125 176.164062 152.0625 176.136719 Z M 149.34375 175.023438 C 150.308594 174.546875 151.480469 174.949219 151.957031 175.917969 C 152.433594 176.886719 152.03125 178.0625 151.066406 178.539062 C 150.101562 179.015625 148.929688 178.617188 148.453125 177.648438 C 147.976562 176.679688 148.378906 175.5 149.34375 175.023438 Z M 145.402344 159.121094 C 145.402344 164.617188 146.402344 169.949219 148.375 175.003906 C 147.648438 175.761719 147.429688 176.917969 147.917969 177.914062 C 147.851562 177.777344 147.785156 177.644531 147.753906 177.582031 C 147.777344 177.632812 147.828125 177.730469 147.917969 177.914062 C 148.003906 178.089844 148.054688 178.191406 148.078125 178.238281 C 148.046875 178.175781 147.980469 178.046875 147.917969 177.914062 C 148.539062 179.179688 150.070312 179.703125 151.332031 179.078125 C 152.59375 178.457031 153.113281 176.917969 152.492188 175.652344 C 152.054688 174.753906 151.152344 174.230469 150.214844 174.222656 C 148.34375 169.417969 147.398438 164.347656 147.398438 159.121094 C 147.398438 136.09375 166.058594 117.363281 189 117.363281 C 191.972656 117.363281 194.925781 117.683594 197.808594 118.308594 C 197.984375 119.085938 198.558594 119.742188 199.371094 119.984375 C 200.5625 120.332031 201.816406 119.648438 202.164062 118.449219 C 202.511719 117.253906 201.828125 115.996094 200.636719 115.644531 C 199.753906 115.386719 198.84375 115.695312 198.285156 116.355469 C 195.246094 115.695312 192.132812 115.359375 189 115.359375 C 164.960938 115.359375 145.402344 134.988281 145.402344 159.121094 " fill-opacity="1" fill-rule="nonzero"/><path fill="#54afe6" d="M 214.4375 184.457031 C 214.417969 184.480469 214.398438 184.5 214.386719 184.515625 C 214.398438 184.5 214.417969 184.480469 214.4375 184.457031 Z M 214.640625 184.238281 C 214.65625 184.21875 214.675781 184.203125 214.6875 184.183594 C 214.671875 184.203125 214.65625 184.21875 214.640625 184.238281 Z M 214.738281 184.132812 C 214.789062 184.074219 214.78125 184.085938 214.738281 184.132812 Z M 217.320312 184.210938 C 218.109375 184.945312 218.160156 186.1875 217.429688 186.980469 C 216.699219 187.773438 215.460938 187.824219 214.671875 187.09375 C 213.878906 186.359375 213.832031 185.117188 214.5625 184.324219 C 214.554688 184.332031 214.546875 184.339844 214.535156 184.351562 C 214.546875 184.339844 214.554688 184.332031 214.5625 184.324219 C 214.574219 184.308594 214.589844 184.292969 214.601562 184.28125 C 214.589844 184.292969 214.574219 184.308594 214.5625 184.324219 C 215.292969 183.527344 216.53125 183.480469 217.320312 184.210938 Z M 217.867188 187.390625 C 218.824219 186.351562 218.757812 184.730469 217.726562 183.769531 C 216.695312 182.8125 215.074219 182.878906 214.121094 183.914062 C 213.441406 184.652344 213.28125 185.6875 213.617188 186.566406 C 206.84375 192.710938 198.195312 196.070312 189 196.070312 C 168.699219 196.070312 152.1875 179.496094 152.1875 159.121094 C 152.1875 140.238281 166.359375 124.503906 184.824219 122.410156 C 185.230469 123.082031 185.980469 123.527344 186.824219 123.5 C 188.066406 123.457031 189.039062 122.414062 189 121.167969 C 188.960938 119.921875 187.917969 118.941406 186.675781 118.984375 C 185.753906 119.011719 184.976562 119.597656 184.65625 120.410156 C 165.164062 122.589844 150.191406 139.191406 150.191406 159.121094 C 150.191406 180.597656 167.601562 198.074219 189 198.074219 C 198.714844 198.074219 207.855469 194.515625 215.003906 188.007812 C 215.96875 188.414062 217.121094 188.203125 217.867188 187.390625 " fill-opacity="1" fill-rule="nonzero"/><path fill="#54afe6" d="M 219.984375 161.300781 C 219.984375 161.304688 219.984375 161.316406 219.984375 161.328125 C 219.984375 161.3125 219.984375 161.304688 219.984375 161.300781 Z M 219.980469 161.367188 C 219.976562 161.417969 219.976562 161.480469 219.972656 161.550781 C 219.976562 161.46875 219.976562 161.410156 219.980469 161.367188 Z M 219.960938 161.859375 C 219.960938 161.863281 219.960938 161.867188 219.960938 161.871094 C 219.960938 161.867188 219.960938 161.863281 219.960938 161.859375 Z M 219.960938 161.910156 C 219.960938 161.914062 219.960938 161.914062 219.960938 161.910156 Z M 221.996094 159.722656 C 223.074219 159.761719 223.914062 160.671875 223.871094 161.753906 C 223.832031 162.832031 222.925781 163.675781 221.847656 163.636719 C 220.773438 163.59375 219.929688 162.683594 219.972656 161.601562 C 220.011719 160.523438 220.921875 159.679688 221.996094 159.722656 Z M 224.472656 161.777344 C 224.523438 160.367188 223.425781 159.171875 222.019531 159.121094 C 220.613281 159.066406 219.429688 160.167969 219.375 161.582031 C 219.335938 162.566406 219.863281 163.445312 220.664062 163.902344 C 219.203125 173.621094 213.316406 182.21875 204.753906 187.09375 C 204.125 186.636719 203.277344 186.519531 202.515625 186.859375 C 201.378906 187.371094 200.871094 188.707031 201.378906 189.847656 C 201.886719 190.984375 203.222656 191.496094 204.355469 190.984375 C 205.207031 190.601562 205.707031 189.75 205.6875 188.867188 C 214.828125 183.683594 221.113281 174.507812 222.648438 164.128906 C 223.664062 163.824219 224.425781 162.898438 224.472656 161.777344 " fill-opacity="1" fill-rule="nonzero"/><path fill="#54afe6" d="M 178.351562 188.433594 C 178.351562 188.433594 178.351562 188.429688 178.347656 188.429688 C 178.347656 188.429688 178.351562 188.433594 178.351562 188.433594 Z M 177.484375 192.265625 C 176.457031 191.945312 175.878906 190.847656 176.199219 189.8125 C 176.515625 188.78125 177.613281 188.203125 178.640625 188.523438 C 178.53125 188.488281 178.421875 188.453125 178.371094 188.4375 C 178.410156 188.449219 178.492188 188.476562 178.640625 188.523438 C 178.800781 188.570312 178.882812 188.597656 178.917969 188.609375 C 178.875 188.59375 178.757812 188.558594 178.640625 188.523438 C 179.667969 188.839844 180.246094 189.941406 179.925781 190.972656 C 179.609375 192.003906 178.515625 192.585938 177.484375 192.265625 Z M 157.414062 164.410156 C 158.0625 163.972656 158.464844 163.210938 158.40625 162.375 C 158.316406 161.128906 157.238281 160.191406 156 160.28125 C 154.757812 160.371094 153.824219 161.453125 153.914062 162.695312 C 153.980469 163.632812 154.605469 164.390625 155.4375 164.675781 C 157.3125 176.097656 164.921875 185.863281 175.515625 190.46875 C 175.546875 191.53125 176.242188 192.507812 177.308594 192.839844 C 177.167969 192.796875 177.027344 192.75 176.960938 192.730469 C 177.011719 192.746094 177.121094 192.78125 177.308594 192.839844 C 177.511719 192.902344 177.625 192.9375 177.667969 192.953125 C 177.609375 192.933594 177.460938 192.886719 177.308594 192.839844 C 178.652344 193.257812 180.082031 192.5 180.5 191.148438 C 180.914062 189.804688 180.160156 188.363281 178.816406 187.949219 C 177.875 187.65625 176.894531 187.941406 176.246094 188.601562 C 166.324219 184.261719 159.191406 175.109375 157.414062 164.410156 " fill-opacity="1" fill-rule="nonzero"/></svg>