<svg xmlns="http://www.w3.org/2000/svg" xmlns:xlink="http://www.w3.org/1999/xlink" width="500" zoomAndPan="magnify" viewBox="0 0 375 374.999991" height="500" preserveAspectRatio="xMidYMid meet" version="1.0"><defs><g/></defs><rect x="-37.5" width="450" fill="#ffffff" y="-37.499999" height="449.999989" fill-opacity="1"/><rect x="-37.5" width="450" fill="#f1efe7" y="-37.499999" height="449.999989" fill-opacity="1"/><g fill="#000000" fill-opacity="1"><g transform="translate(93.045087, 208.275001)"><g><path d="M 50.25 -55.0625 L 22.953125 -11.015625 L 48.453125 -11.015625 L 48.453125 0 L 1.0625 0 L 28.296875 -44.046875 L 4.9375 -44.046875 L 4.9375 -55.0625 Z M 50.25 -55.0625 "/></g></g></g><g fill="#000000" fill-opacity="1"><g transform="translate(138.085178, 208.275001)"><g><path d="M 38.640625 -15.484375 L 13.8125 -15.484375 C 13.8125 -13.078125 14.585938 -11.296875 16.140625 -10.140625 C 17.703125 -8.984375 19.394531 -8.40625 21.21875 -8.40625 C 23.132812 -8.40625 24.644531 -8.660156 25.75 -9.171875 C 26.863281 -9.679688 28.132812 -10.695312 29.5625 -12.21875 L 38.109375 -7.9375 C 34.546875 -1.976562 28.628906 1 20.359375 1 C 15.191406 1 10.757812 -0.765625 7.0625 -4.296875 C 3.375 -7.835938 1.53125 -12.097656 1.53125 -17.078125 C 1.53125 -22.066406 3.375 -26.335938 7.0625 -29.890625 C 10.757812 -33.453125 15.191406 -35.234375 20.359375 -35.234375 C 25.785156 -35.234375 30.195312 -33.664062 33.59375 -30.53125 C 37 -27.394531 38.703125 -22.910156 38.703125 -17.078125 C 38.703125 -16.273438 38.679688 -15.742188 38.640625 -15.484375 Z M 14.140625 -22.015625 L 27.15625 -22.015625 C 26.894531 -23.796875 26.195312 -25.164062 25.0625 -26.125 C 23.925781 -27.082031 22.46875 -27.5625 20.6875 -27.5625 C 18.726562 -27.5625 17.171875 -27.046875 16.015625 -26.015625 C 14.859375 -24.992188 14.234375 -23.660156 14.140625 -22.015625 Z M 14.140625 -22.015625 "/></g></g></g><g fill="#000000" fill-opacity="1"><g transform="translate(172.04866, 208.275001)"><g><path d="M 43.109375 -34.234375 L 26.828125 -17.890625 L 44.71875 0 L 29.5 0 L 15.8125 -13.6875 L 15.8125 0 L 4 0 L 4 -57.390625 L 15.8125 -57.390625 L 15.8125 -22.296875 L 27.765625 -34.234375 Z M 43.109375 -34.234375 "/></g></g></g><g fill="#000000" fill-opacity="1"><g transform="translate(208.881376, 208.275001)"><g><path d="M 7.234375 -4.0625 C 3.429688 -7.445312 1.53125 -11.785156 1.53125 -17.078125 C 1.53125 -22.378906 3.507812 -26.726562 7.46875 -30.125 C 11.425781 -33.53125 16.320312 -35.234375 22.15625 -35.234375 C 27.894531 -35.234375 32.734375 -33.519531 36.671875 -30.09375 C 40.609375 -26.664062 42.578125 -22.328125 42.578125 -17.078125 C 42.578125 -11.828125 40.648438 -7.5 36.796875 -4.09375 C 32.953125 -0.695312 28.070312 1 22.15625 1 C 16.019531 1 11.046875 -0.6875 7.234375 -4.0625 Z M 16.375 -22.890625 C 14.84375 -21.378906 14.078125 -19.441406 14.078125 -17.078125 C 14.078125 -14.722656 14.8125 -12.800781 16.28125 -11.3125 C 17.75 -9.820312 19.6875 -9.078125 22.09375 -9.078125 C 24.40625 -9.078125 26.304688 -9.832031 27.796875 -11.34375 C 29.285156 -12.851562 30.03125 -14.765625 30.03125 -17.078125 C 30.03125 -19.441406 29.257812 -21.378906 27.71875 -22.890625 C 26.1875 -24.398438 24.3125 -25.15625 22.09375 -25.15625 C 19.820312 -25.15625 17.914062 -24.398438 16.375 -22.890625 Z M 16.375 -22.890625 "/></g></g></g><g fill="#000000" fill-opacity="1"><g transform="translate(246.714991, 208.275001)"><g/></g></g><g fill="#000000" fill-opacity="1"><g transform="translate(258.658697, 208.275001)"><g><path d="M 11.609375 -36.96875 C 13.742188 -36.96875 15.554688 -36.222656 17.046875 -34.734375 C 18.535156 -33.242188 19.28125 -31.429688 19.28125 -29.296875 C 19.28125 -27.203125 18.535156 -25.410156 17.046875 -23.921875 C 15.554688 -22.429688 13.742188 -21.6875 11.609375 -21.6875 C 9.515625 -21.6875 7.722656 -22.429688 6.234375 -23.921875 C 4.742188 -25.410156 4 -27.203125 4 -29.296875 C 4 -31.429688 4.742188 -33.242188 6.234375 -34.734375 C 7.722656 -36.222656 9.515625 -36.96875 11.609375 -36.96875 Z M 11.609375 -14.28125 C 9.515625 -14.28125 7.722656 -13.535156 6.234375 -12.046875 C 4.742188 -10.554688 4 -8.742188 4 -6.609375 C 4 -4.867188 4.53125 -3.363281 5.59375 -2.09375 C 6.664062 -0.832031 8.050781 0 9.75 0.40625 C 9.4375 2.050781 8.851562 3.648438 8 5.203125 C 7.15625 6.765625 6.398438 7.921875 5.734375 8.671875 L 4.671875 9.75 L 8.078125 12.546875 C 15.546875 6.359375 19.28125 -0.0234375 19.28125 -6.609375 C 19.28125 -8.742188 18.535156 -10.554688 17.046875 -12.046875 C 15.554688 -13.535156 13.742188 -14.28125 11.609375 -14.28125 Z M 11.609375 -14.28125 "/></g></g></g><g fill="#000000" fill-opacity="1"><g transform="translate(136.104386, 228.290507)"><g><path d="M 5.109375 -7.625 C 5.253906 -7.625 5.375 -7.578125 5.46875 -7.484375 C 5.5625 -7.398438 5.609375 -7.285156 5.609375 -7.140625 L 5.609375 -0.5 C 5.609375 -0.351562 5.5625 -0.234375 5.46875 -0.140625 C 5.375 -0.046875 5.253906 0 5.109375 0 C 4.972656 0 4.859375 -0.046875 4.765625 -0.140625 C 4.671875 -0.234375 4.625 -0.351562 4.625 -0.5 L 4.625 -0.78125 C 4.457031 -0.53125 4.21875 -0.316406 3.90625 -0.140625 C 3.59375 0.0234375 3.253906 0.109375 2.890625 0.109375 C 2.429688 0.109375 2.007812 -0.0078125 1.625 -0.25 C 1.25 -0.5 0.953125 -0.835938 0.734375 -1.265625 C 0.515625 -1.691406 0.40625 -2.175781 0.40625 -2.71875 C 0.40625 -3.25 0.507812 -3.726562 0.71875 -4.15625 C 0.9375 -4.59375 1.234375 -4.929688 1.609375 -5.171875 C 1.992188 -5.410156 2.410156 -5.53125 2.859375 -5.53125 C 3.222656 -5.53125 3.5625 -5.453125 3.875 -5.296875 C 4.1875 -5.148438 4.4375 -4.957031 4.625 -4.71875 L 4.625 -7.140625 C 4.625 -7.285156 4.671875 -7.398438 4.765625 -7.484375 C 4.859375 -7.578125 4.972656 -7.625 5.109375 -7.625 Z M 3.015625 -0.796875 C 3.335938 -0.796875 3.625 -0.878906 3.875 -1.046875 C 4.125 -1.210938 4.316406 -1.441406 4.453125 -1.734375 C 4.597656 -2.023438 4.671875 -2.351562 4.671875 -2.71875 C 4.671875 -3.070312 4.597656 -3.394531 4.453125 -3.6875 C 4.316406 -3.976562 4.125 -4.207031 3.875 -4.375 C 3.625 -4.539062 3.335938 -4.625 3.015625 -4.625 C 2.691406 -4.625 2.40625 -4.539062 2.15625 -4.375 C 1.90625 -4.207031 1.707031 -3.976562 1.5625 -3.6875 C 1.414062 -3.394531 1.34375 -3.070312 1.34375 -2.71875 C 1.34375 -2.351562 1.414062 -2.023438 1.5625 -1.734375 C 1.707031 -1.441406 1.90625 -1.210938 2.15625 -1.046875 C 2.40625 -0.878906 2.691406 -0.796875 3.015625 -0.796875 Z M 3.015625 -0.796875 "/></g></g></g><g fill="#000000" fill-opacity="1"><g transform="translate(149.149282, 228.290507)"><g><path d="M 5.46875 -2.90625 C 5.46875 -2.78125 5.414062 -2.675781 5.3125 -2.59375 C 5.21875 -2.507812 5.109375 -2.46875 4.984375 -2.46875 L 1.34375 -2.46875 C 1.394531 -1.96875 1.585938 -1.5625 1.921875 -1.25 C 2.253906 -0.945312 2.660156 -0.796875 3.140625 -0.796875 C 3.472656 -0.796875 3.742188 -0.84375 3.953125 -0.9375 C 4.160156 -1.039062 4.34375 -1.164062 4.5 -1.3125 C 4.601562 -1.375 4.703125 -1.40625 4.796875 -1.40625 C 4.910156 -1.40625 5.003906 -1.363281 5.078125 -1.28125 C 5.160156 -1.207031 5.203125 -1.113281 5.203125 -1 C 5.203125 -0.851562 5.132812 -0.722656 5 -0.609375 C 4.800781 -0.410156 4.535156 -0.238281 4.203125 -0.09375 C 3.878906 0.0390625 3.546875 0.109375 3.203125 0.109375 C 2.640625 0.109375 2.144531 -0.00390625 1.71875 -0.234375 C 1.300781 -0.472656 0.976562 -0.800781 0.75 -1.21875 C 0.519531 -1.644531 0.40625 -2.125 0.40625 -2.65625 C 0.40625 -3.226562 0.519531 -3.734375 0.75 -4.171875 C 0.988281 -4.609375 1.300781 -4.941406 1.6875 -5.171875 C 2.082031 -5.410156 2.503906 -5.53125 2.953125 -5.53125 C 3.390625 -5.53125 3.800781 -5.414062 4.1875 -5.1875 C 4.570312 -4.957031 4.878906 -4.644531 5.109375 -4.25 C 5.347656 -3.851562 5.46875 -3.40625 5.46875 -2.90625 Z M 2.953125 -4.625 C 2.566406 -4.625 2.234375 -4.515625 1.953125 -4.296875 C 1.671875 -4.078125 1.484375 -3.742188 1.390625 -3.296875 L 4.4375 -3.296875 L 4.4375 -3.375 C 4.40625 -3.738281 4.238281 -4.035156 3.9375 -4.265625 C 3.644531 -4.503906 3.316406 -4.625 2.953125 -4.625 Z M 2.953125 -4.625 "/></g></g></g><g fill="#000000" fill-opacity="1"><g transform="translate(161.740935, 228.290507)"><g><path d="M 4.859375 -5.453125 C 4.984375 -5.453125 5.09375 -5.410156 5.1875 -5.328125 C 5.28125 -5.242188 5.328125 -5.140625 5.328125 -5.015625 C 5.328125 -4.953125 5.300781 -4.867188 5.25 -4.765625 L 3.296875 -0.3125 C 3.253906 -0.21875 3.191406 -0.144531 3.109375 -0.09375 C 3.035156 -0.0390625 2.953125 -0.0078125 2.859375 0 C 2.753906 0.0078125 2.65625 -0.0078125 2.5625 -0.0625 C 2.46875 -0.113281 2.394531 -0.195312 2.34375 -0.3125 L 0.390625 -4.765625 C 0.359375 -4.867188 0.34375 -4.953125 0.34375 -5.015625 C 0.34375 -5.128906 0.382812 -5.226562 0.46875 -5.3125 C 0.5625 -5.40625 0.679688 -5.453125 0.828125 -5.453125 C 0.929688 -5.453125 1.023438 -5.425781 1.109375 -5.375 C 1.191406 -5.320312 1.253906 -5.242188 1.296875 -5.140625 L 2.859375 -1.53125 L 4.40625 -5.140625 C 4.507812 -5.347656 4.660156 -5.453125 4.859375 -5.453125 Z M 4.859375 -5.453125 "/></g></g></g><g fill="#000000" fill-opacity="1"><g transform="translate(174.105973, 228.290507)"><g><path d="M 5.46875 -2.90625 C 5.46875 -2.78125 5.414062 -2.675781 5.3125 -2.59375 C 5.21875 -2.507812 5.109375 -2.46875 4.984375 -2.46875 L 1.34375 -2.46875 C 1.394531 -1.96875 1.585938 -1.5625 1.921875 -1.25 C 2.253906 -0.945312 2.660156 -0.796875 3.140625 -0.796875 C 3.472656 -0.796875 3.742188 -0.84375 3.953125 -0.9375 C 4.160156 -1.039062 4.34375 -1.164062 4.5 -1.3125 C 4.601562 -1.375 4.703125 -1.40625 4.796875 -1.40625 C 4.910156 -1.40625 5.003906 -1.363281 5.078125 -1.28125 C 5.160156 -1.207031 5.203125 -1.113281 5.203125 -1 C 5.203125 -0.851562 5.132812 -0.722656 5 -0.609375 C 4.800781 -0.410156 4.535156 -0.238281 4.203125 -0.09375 C 3.878906 0.0390625 3.546875 0.109375 3.203125 0.109375 C 2.640625 0.109375 2.144531 -0.00390625 1.71875 -0.234375 C 1.300781 -0.472656 0.976562 -0.800781 0.75 -1.21875 C 0.519531 -1.644531 0.40625 -2.125 0.40625 -2.65625 C 0.40625 -3.226562 0.519531 -3.734375 0.75 -4.171875 C 0.988281 -4.609375 1.300781 -4.941406 1.6875 -5.171875 C 2.082031 -5.410156 2.503906 -5.53125 2.953125 -5.53125 C 3.390625 -5.53125 3.800781 -5.414062 4.1875 -5.1875 C 4.570312 -4.957031 4.878906 -4.644531 5.109375 -4.25 C 5.347656 -3.851562 5.46875 -3.40625 5.46875 -2.90625 Z M 2.953125 -4.625 C 2.566406 -4.625 2.234375 -4.515625 1.953125 -4.296875 C 1.671875 -4.078125 1.484375 -3.742188 1.390625 -3.296875 L 4.4375 -3.296875 L 4.4375 -3.375 C 4.40625 -3.738281 4.238281 -4.035156 3.9375 -4.265625 C 3.644531 -4.503906 3.316406 -4.625 2.953125 -4.625 Z M 2.953125 -4.625 "/></g></g></g><g fill="#000000" fill-opacity="1"><g transform="translate(186.697626, 228.290507)"><g><path d="M 1.796875 -0.5 C 1.796875 -0.351562 1.742188 -0.234375 1.640625 -0.140625 C 1.546875 -0.046875 1.429688 0 1.296875 0 C 1.160156 0 1.046875 -0.046875 0.953125 -0.140625 C 0.859375 -0.234375 0.8125 -0.351562 0.8125 -0.5 L 0.8125 -7.140625 C 0.8125 -7.273438 0.859375 -7.390625 0.953125 -7.484375 C 1.054688 -7.578125 1.175781 -7.625 1.3125 -7.625 C 1.445312 -7.625 1.5625 -7.578125 1.65625 -7.484375 C 1.75 -7.390625 1.796875 -7.273438 1.796875 -7.140625 Z M 1.796875 -0.5 "/></g></g></g><g fill="#000000" fill-opacity="1"><g transform="translate(196.023948, 228.290507)"><g><path d="M 5.84375 -2.703125 C 5.84375 -2.160156 5.722656 -1.675781 5.484375 -1.25 C 5.242188 -0.832031 4.914062 -0.5 4.5 -0.25 C 4.082031 -0.0078125 3.625 0.109375 3.125 0.109375 C 2.625 0.109375 2.164062 -0.0078125 1.75 -0.25 C 1.332031 -0.5 1.003906 -0.832031 0.765625 -1.25 C 0.523438 -1.675781 0.40625 -2.160156 0.40625 -2.703125 C 0.40625 -3.234375 0.523438 -3.71875 0.765625 -4.15625 C 1.003906 -4.59375 1.332031 -4.929688 1.75 -5.171875 C 2.164062 -5.410156 2.625 -5.53125 3.125 -5.53125 C 3.625 -5.53125 4.082031 -5.410156 4.5 -5.171875 C 4.914062 -4.929688 5.242188 -4.59375 5.484375 -4.15625 C 5.722656 -3.71875 5.84375 -3.234375 5.84375 -2.703125 Z M 4.875 -2.703125 C 4.875 -3.078125 4.796875 -3.410156 4.640625 -3.703125 C 4.484375 -3.992188 4.269531 -4.21875 4 -4.375 C 3.738281 -4.539062 3.445312 -4.625 3.125 -4.625 C 2.800781 -4.625 2.503906 -4.539062 2.234375 -4.375 C 1.972656 -4.21875 1.765625 -3.992188 1.609375 -3.703125 C 1.453125 -3.410156 1.375 -3.078125 1.375 -2.703125 C 1.375 -2.335938 1.453125 -2.007812 1.609375 -1.71875 C 1.765625 -1.4375 1.972656 -1.210938 2.234375 -1.046875 C 2.503906 -0.878906 2.800781 -0.796875 3.125 -0.796875 C 3.445312 -0.796875 3.738281 -0.878906 4 -1.046875 C 4.269531 -1.210938 4.484375 -1.4375 4.640625 -1.71875 C 4.796875 -2.007812 4.875 -2.335938 4.875 -2.703125 Z M 4.875 -2.703125 "/></g></g></g><g fill="#000000" fill-opacity="1"><g transform="translate(208.986435, 228.290507)"><g><path d="M 3.4375 -5.5 C 3.90625 -5.5 4.328125 -5.378906 4.703125 -5.140625 C 5.085938 -4.898438 5.390625 -4.566406 5.609375 -4.140625 C 5.828125 -3.710938 5.9375 -3.234375 5.9375 -2.703125 C 5.9375 -2.160156 5.828125 -1.675781 5.609375 -1.25 C 5.390625 -0.832031 5.085938 -0.503906 4.703125 -0.265625 C 4.328125 -0.0234375 3.914062 0.09375 3.46875 0.09375 C 3.101562 0.09375 2.765625 0.015625 2.453125 -0.140625 C 2.148438 -0.296875 1.90625 -0.488281 1.71875 -0.71875 L 1.71875 1.5625 C 1.71875 1.707031 1.671875 1.828125 1.578125 1.921875 C 1.484375 2.015625 1.363281 2.0625 1.21875 2.0625 C 1.082031 2.0625 0.96875 2.015625 0.875 1.921875 C 0.78125 1.828125 0.734375 1.707031 0.734375 1.5625 L 0.734375 -4.921875 C 0.734375 -5.066406 0.773438 -5.1875 0.859375 -5.28125 C 0.953125 -5.375 1.070312 -5.421875 1.21875 -5.421875 C 1.363281 -5.421875 1.484375 -5.375 1.578125 -5.28125 C 1.671875 -5.1875 1.71875 -5.066406 1.71875 -4.921875 L 1.71875 -4.625 C 1.875 -4.863281 2.109375 -5.066406 2.421875 -5.234375 C 2.742188 -5.410156 3.082031 -5.5 3.4375 -5.5 Z M 3.328125 -0.8125 C 3.648438 -0.8125 3.9375 -0.894531 4.1875 -1.0625 C 4.4375 -1.226562 4.628906 -1.453125 4.765625 -1.734375 C 4.910156 -2.023438 4.984375 -2.347656 4.984375 -2.703125 C 4.984375 -3.054688 4.910156 -3.375 4.765625 -3.65625 C 4.628906 -3.945312 4.4375 -4.175781 4.1875 -4.34375 C 3.9375 -4.507812 3.648438 -4.59375 3.328125 -4.59375 C 3.003906 -4.59375 2.710938 -4.507812 2.453125 -4.34375 C 2.203125 -4.1875 2.003906 -3.960938 1.859375 -3.671875 C 1.722656 -3.378906 1.65625 -3.054688 1.65625 -2.703125 C 1.65625 -2.347656 1.722656 -2.023438 1.859375 -1.734375 C 2.003906 -1.441406 2.203125 -1.210938 2.453125 -1.046875 C 2.710938 -0.890625 3.003906 -0.8125 3.328125 -0.8125 Z M 3.328125 -0.8125 "/></g></g></g><g fill="#000000" fill-opacity="1"><g transform="translate(222.031331, 228.290507)"><g><path d="M 5.46875 -2.90625 C 5.46875 -2.78125 5.414062 -2.675781 5.3125 -2.59375 C 5.21875 -2.507812 5.109375 -2.46875 4.984375 -2.46875 L 1.34375 -2.46875 C 1.394531 -1.96875 1.585938 -1.5625 1.921875 -1.25 C 2.253906 -0.945312 2.660156 -0.796875 3.140625 -0.796875 C 3.472656 -0.796875 3.742188 -0.84375 3.953125 -0.9375 C 4.160156 -1.039062 4.34375 -1.164062 4.5 -1.3125 C 4.601562 -1.375 4.703125 -1.40625 4.796875 -1.40625 C 4.910156 -1.40625 5.003906 -1.363281 5.078125 -1.28125 C 5.160156 -1.207031 5.203125 -1.113281 5.203125 -1 C 5.203125 -0.851562 5.132812 -0.722656 5 -0.609375 C 4.800781 -0.410156 4.535156 -0.238281 4.203125 -0.09375 C 3.878906 0.0390625 3.546875 0.109375 3.203125 0.109375 C 2.640625 0.109375 2.144531 -0.00390625 1.71875 -0.234375 C 1.300781 -0.472656 0.976562 -0.800781 0.75 -1.21875 C 0.519531 -1.644531 0.40625 -2.125 0.40625 -2.65625 C 0.40625 -3.226562 0.519531 -3.734375 0.75 -4.171875 C 0.988281 -4.609375 1.300781 -4.941406 1.6875 -5.171875 C 2.082031 -5.410156 2.503906 -5.53125 2.953125 -5.53125 C 3.390625 -5.53125 3.800781 -5.414062 4.1875 -5.1875 C 4.570312 -4.957031 4.878906 -4.644531 5.109375 -4.25 C 5.347656 -3.851562 5.46875 -3.40625 5.46875 -2.90625 Z M 2.953125 -4.625 C 2.566406 -4.625 2.234375 -4.515625 1.953125 -4.296875 C 1.671875 -4.078125 1.484375 -3.742188 1.390625 -3.296875 L 4.4375 -3.296875 L 4.4375 -3.375 C 4.40625 -3.738281 4.238281 -4.035156 3.9375 -4.265625 C 3.644531 -4.503906 3.316406 -4.625 2.953125 -4.625 Z M 2.953125 -4.625 "/></g></g></g><g fill="#000000" fill-opacity="1"><g transform="translate(234.622985, 228.290507)"><g><path d="M 3.421875 -5.53125 C 3.597656 -5.53125 3.75 -5.484375 3.875 -5.390625 C 4.007812 -5.296875 4.078125 -5.179688 4.078125 -5.046875 C 4.078125 -4.878906 4.035156 -4.75 3.953125 -4.65625 C 3.867188 -4.570312 3.765625 -4.53125 3.640625 -4.53125 C 3.578125 -4.53125 3.484375 -4.550781 3.359375 -4.59375 C 3.210938 -4.644531 3.097656 -4.671875 3.015625 -4.671875 C 2.804688 -4.671875 2.597656 -4.597656 2.390625 -4.453125 C 2.191406 -4.304688 2.03125 -4.101562 1.90625 -3.84375 C 1.78125 -3.582031 1.71875 -3.296875 1.71875 -2.984375 L 1.71875 -0.5 C 1.71875 -0.351562 1.671875 -0.234375 1.578125 -0.140625 C 1.484375 -0.046875 1.363281 0 1.21875 0 C 1.070312 0 0.953125 -0.046875 0.859375 -0.140625 C 0.773438 -0.234375 0.734375 -0.351562 0.734375 -0.5 L 0.734375 -4.90625 C 0.734375 -5.039062 0.78125 -5.15625 0.875 -5.25 C 0.96875 -5.351562 1.082031 -5.40625 1.21875 -5.40625 C 1.363281 -5.40625 1.484375 -5.351562 1.578125 -5.25 C 1.671875 -5.15625 1.71875 -5.039062 1.71875 -4.90625 L 1.71875 -4.390625 C 1.863281 -4.722656 2.085938 -4.992188 2.390625 -5.203125 C 2.691406 -5.410156 3.035156 -5.519531 3.421875 -5.53125 Z M 3.421875 -5.53125 "/></g></g></g></svg>